<?xml version="1.0" encoding="UTF-8"?><svg id="Ebene_1" xmlns="http://www.w3.org/2000/svg" viewBox="0 0 782.47 169.41"><path d="M247.12,41.49s-.03,0-.05,0h0c-10.36,0-18.75,8.39-18.75,18.75v56.45h18.75V60.29h56.26v75.2h18.75V41.49h-74.97Z" fill="#1d1d1b"/><path d="M247.08,135.5h37.46c10.38,0,18.8-8.42,18.8-18.8h-56.26v18.8Z" fill="#1d1d1b"/><path d="M415.8,41.49h0s-.03,0-.05,0h-56.21V22.69h-18.75v112.8h18.75v-18.8c0,10.38,8.42,18.8,18.8,18.8h37.46v-18.8h-56.26V60.29h56.26v56.4h18.75V60.25c0-10.36-8.4-18.75-18.75-18.75Z" fill="#1d1d1b"/><path d="M208.32,60.29h-17.4v-18.8h-57.56c-8.67,0-15.96,5.88-18.13,13.87-2.17-7.99-9.45-13.87-18.13-13.87H39.59s-.03,0-.05,0h0c-10.36,0-18.75,8.39-18.75,18.75v75.25h20.1V60.29h63.5v75.2h20.1V60.29h65.07v75.2h20.1V60.29h-1.35Z" fill="#1d1d1b"/><rect x="641.91" y="88.66" width="18.75" height="46.84" fill="#1d1d1b"/><path d="M641.91,41.49v28.2h-45.84c-10.37,0-18.77,8.39-18.8,18.75h-10.38v47.05h18.75v-47h46.05c10.26,0,18.59-8.23,18.78-18.45h10.18v-28.55h-18.75Z" fill="#1d1d1b"/><rect x="566.9" y="41.49" width="18.75" height="28.04" fill="#1d1d1b"/><polygon points="685.95 54.53 682.66 44.75 679.42 44.75 684.59 60.12 687.32 60.12 692.48 44.75 689.24 44.75 685.95 54.53" fill="#1d1d1b"/><polygon points="694.02 60.12 697.1 60.12 697.1 41.68 694.02 43.21 694.02 60.12" fill="#1d1d1b"/><rect x="699.4" y="57.05" width="3.07" height="3.07" fill="#1d1d1b"/><path d="M707.85,41.68l-3.07,1.54v9.22l3.07,1.54h4.9v3.07h-7.97v3.07h7.97l3.07-1.54v-15.37l-3.07-1.54h-4.9Zm4.9,9.22h-4.9v-6.15h4.9v6.15Z" fill="#1d1d1b"/><rect x="718.13" y="57.05" width="3.07" height="3.07" fill="#1d1d1b"/><path d="M723.51,43.21v15.37l3.07,1.54h5.8l3.07-1.54v-9.22l-3.07-1.54h-5.8v-3.07h8.87v-3.07h-8.87l-3.07,1.54Zm8.87,7.68v6.15h-5.8v-6.15h5.8Z" fill="#1d1d1b"/><rect x="737.76" y="57.05" width="3.07" height="3.07" fill="#1d1d1b"/><path d="M553.23,75.38l-39.88-39.88-13.29-13.29-13.26,13.26-39.75,39.75s-.02,.02-.03,.03h0c-7.32,7.32-7.32,19.2,0,26.52l39.91,39.91h.01l.99,.96,12.31,12.31,13.24-13.24h0l26.49-26.49h0l13.26-13.26c7.34-7.34,7.34-19.25,0-26.59Zm-39.78,39.78l-13.26,13.26-.64-.64h0l-39.24-39.24,39.78-39.78,39.88,39.88-26.52,26.52Z"/><rect x="745.83" y="50.9" width="3.95" height="6.15" fill="none"/><polygon points="749.78 57.05 745.83 57.05 745.83 50.9 749.78 50.9 751.63 50.9 754.7 50.9 754.7 43.21 751.63 41.68 742.76 41.68 742.76 44.75 751.63 44.75 751.63 47.82 745.83 47.82 742.76 49.36 742.76 58.58 745.83 60.12 754.7 60.12 754.7 57.05 751.63 57.05 749.78 57.05"/></svg>